<svg xmlns="http://www.w3.org/2000/svg" viewBox="0 0 800 470" style="background:#ffffff">
  <rect width="100%" height="100%" fill="white"/>
  <text x="400" y="18" text-anchor="middle" font-size="12" fill="#333" font-weight="bold" font-family="Helvetica,Arial,sans-serif">Panel de Piso — Vista Lateral (Viga Arco de Bambú)</text>
  <text x="400" y="32" font-size="7" text-anchor="middle" fill="#999" font-family="Helvetica,Arial,sans-serif">panel de 180mm · arco + tirante de bambú · cero acero en la luz</text>

  <!-- TERRACOTTA TILES -->
  <rect x="100" y="60" width="600" height="12" fill="#c67a3c" opacity="0.5" stroke="#a05a10" stroke-width="0.5"/>
  <text x="720" y="68" font-size="7" fill="#a05a10" font-family="Helvetica,Arial,sans-serif">baldosas de terracota</text>

  <!-- CORK -->
  <rect x="100" y="72" width="600" height="6" fill="#d4a050" opacity="0.4" stroke="#b08030" stroke-width="0.3"/>
  <text x="720" y="77" font-size="7" fill="#b08030" font-family="Helvetica,Arial,sans-serif">corcho 3mm</text>

  <!-- MORTAR — UPPER ZONE (with pasto estrella, low density) -->
  <rect x="100" y="78" width="600" height="95" fill="#e8d8b0" opacity="0.45" stroke="#bbb" stroke-width="0.5"/>
  <!-- Fiber texture -->
  <g fill="#a89060" opacity="0.25">
    <circle cx="150" cy="98" r="1"/><circle cx="220" cy="113" r="1.2"/>
    <circle cx="310" cy="93" r="0.8"/><circle cx="400" cy="118" r="1"/>
    <circle cx="480" cy="103" r="1.1"/><circle cx="560" cy="123" r="0.9"/>
    <circle cx="640" cy="108" r="1"/><circle cx="180" cy="133" r="1.2"/>
    <circle cx="350" cy="138" r="0.8"/><circle cx="520" cy="128" r="1"/>
  </g>
  <text x="720" y="108" font-size="7" fill="#a89060" font-family="Helvetica,Arial,sans-serif">mortero + pasto</text>
  <text x="720" y="118" font-size="7" fill="#a89060" font-family="Helvetica,Arial,sans-serif">estrella (baja densidad)</text>

  <!-- T-BAR (bottom of panel) -->
  <!-- Web -->
  <rect x="100" y="173" width="600" height="85" fill="#d4c4a8" opacity="0.4" stroke="#bbb" stroke-width="0.5"/>
  <!-- Steel edges -->
  <rect x="100" y="173" width="4" height="85" fill="#c0392b" opacity="0.6"/>
  <rect x="696" y="173" width="4" height="85" fill="#c0392b" opacity="0.6"/>
  <!-- Top of web -->
  <rect x="100" y="173" width="600" height="3" fill="#c0392b" opacity="0.4"/>
  <!-- Bottom flange -->
  <rect x="100" y="255" width="600" height="3" fill="#c0392b" opacity="0.5"/>
  <text x="720" y="218" font-size="6" fill="#c0392b" font-family="Helvetica,Arial,sans-serif">Perfil T alma 85mm</text>

  <!-- CROSS-PIECES (graduated, on top of web, forcing arch) -->
  <!-- At 1/4 span -->
  <rect x="245" y="158" width="10" height="15" fill="#c47a2a" opacity="0.4" stroke="#a05a10" stroke-width="0.3"/>
  <!-- At 1/3 span -->
  <rect x="300" y="148" width="10" height="25" fill="#c47a2a" opacity="0.4" stroke="#a05a10" stroke-width="0.3"/>
  <!-- At mid-span -->
  <rect x="395" y="133" width="10" height="40" fill="#c47a2a" opacity="0.4" stroke="#a05a10" stroke-width="0.3"/>
  <!-- At 2/3 span -->
  <rect x="490" y="148" width="10" height="25" fill="#c47a2a" opacity="0.4" stroke="#a05a10" stroke-width="0.3"/>
  <!-- At 3/4 span -->
  <rect x="545" y="158" width="10" height="15" fill="#c47a2a" opacity="0.4" stroke="#a05a10" stroke-width="0.3"/>
  <text x="720" y="153" font-size="7" fill="#c47a2a" font-family="Helvetica,Arial,sans-serif">piezas transversales</text>
  <text x="720" y="163" font-size="7" fill="#c47a2a" font-family="Helvetica,Arial,sans-serif">(graduadas 0→40mm)</text>

  <!-- BAMBOO ARCH (compresión, arcing up over piezas transversales) -->
  <path d="M 100.0,198.0 L 102.0,197.0 L 104.0,196.0 L 106.0,195.0 L 108.0,194.0 L 110.0,193.1 L 112.0,192.1 L 114.0,191.1 L 116.1,190.2 L 118.1,189.2 L 120.1,188.3 L 122.1,187.4 L 124.1,186.4 L 126.1,185.5 L 128.1,184.6 L 130.1,183.7 L 132.1,182.8 L 134.1,181.9 L 136.1,181.0 L 138.1,180.1 L 140.1,179.3 L 142.1,178.4 L 144.1,177.6 L 146.2,176.7 L 148.2,175.9 L 150.2,175.0 L 152.2,174.2 L 154.2,173.4 L 156.2,172.5 L 158.2,171.7 L 160.2,170.9 L 162.2,170.1 L 164.2,169.3 L 166.2,168.5 L 168.2,167.8 L 170.2,167.0 L 172.2,166.2 L 174.2,165.5 L 176.3,164.7 L 178.3,164.0 L 180.3,163.2 L 182.3,162.5 L 184.3,161.8 L 186.3,161.1 L 188.3,160.3 L 190.3,159.6 L 192.3,158.9 L 194.3,158.3 L 196.3,157.6 L 198.3,156.9 L 200.3,156.2 L 202.3,155.6 L 204.3,154.9 L 206.4,154.2 L 208.4,153.6 L 210.4,153.0 L 212.4,152.3 L 214.4,151.7 L 216.4,151.1 L 218.4,150.5 L 220.4,149.9 L 222.4,149.3 L 224.4,148.7 L 226.4,148.1 L 228.4,147.5 L 230.4,147.0 L 232.4,146.4 L 234.4,145.8 L 236.5,145.3 L 238.5,144.7 L 240.5,144.2 L 242.5,143.7 L 244.5,143.2 L 246.5,142.6 L 248.5,142.1 L 250.5,141.6 L 252.5,141.1 L 254.5,140.6 L 256.5,140.2 L 258.5,139.7 L 260.5,139.2 L 262.5,138.7 L 264.5,138.3 L 266.6,137.8 L 268.6,137.4 L 270.6,137.0 L 272.6,136.5 L 274.6,136.1 L 276.6,135.7 L 278.6,135.3 L 280.6,134.9 L 282.6,134.5 L 284.6,134.1 L 286.6,133.7 L 288.6,133.3 L 290.6,133.0 L 292.6,132.6 L 294.6,132.2 L 296.7,131.9 L 298.7,131.6 L 300.7,131.2 L 302.7,130.9 L 304.7,130.6 L 306.7,130.3 L 308.7,129.9 L 310.7,129.6 L 312.7,129.3 L 314.7,129.1 L 316.7,128.8 L 318.7,128.5 L 320.7,128.2 L 322.7,128.0 L 324.7,127.7 L 326.8,127.5 L 328.8,127.2 L 330.8,127.0 L 332.8,126.8 L 334.8,126.5 L 336.8,126.3 L 338.8,126.1 L 340.8,125.9 L 342.8,125.7 L 344.8,125.5 L 346.8,125.4 L 348.8,125.2 L 350.8,125.0 L 352.8,124.9 L 354.8,124.7 L 356.9,124.6 L 358.9,124.4 L 360.9,124.3 L 362.9,124.1 L 364.9,124.0 L 366.9,123.9 L 368.9,123.8 L 370.9,123.7 L 372.9,123.6 L 374.9,123.5 L 376.9,123.4 L 378.9,123.4 L 380.9,123.3 L 382.9,123.2 L 384.9,123.2 L 387.0,123.1 L 389.0,123.1 L 391.0,123.1 L 393.0,123.0 L 395.0,123.0 L 397.0,123.0 L 399.0,123.0 L 401.0,123.0 L 403.0,123.0 L 405.0,123.0 L 407.0,123.0 L 409.0,123.1 L 411.0,123.1 L 413.0,123.1 L 415.1,123.2 L 417.1,123.2 L 419.1,123.3 L 421.1,123.4 L 423.1,123.4 L 425.1,123.5 L 427.1,123.6 L 429.1,123.7 L 431.1,123.8 L 433.1,123.9 L 435.1,124.0 L 437.1,124.1 L 439.1,124.3 L 441.1,124.4 L 443.1,124.6 L 445.2,124.7 L 447.2,124.9 L 449.2,125.0 L 451.2,125.2 L 453.2,125.4 L 455.2,125.5 L 457.2,125.7 L 459.2,125.9 L 461.2,126.1 L 463.2,126.3 L 465.2,126.5 L 467.2,126.8 L 469.2,127.0 L 471.2,127.2 L 473.2,127.5 L 475.3,127.7 L 477.3,128.0 L 479.3,128.2 L 481.3,128.5 L 483.3,128.8 L 485.3,129.1 L 487.3,129.3 L 489.3,129.6 L 491.3,129.9 L 493.3,130.3 L 495.3,130.6 L 497.3,130.9 L 499.3,131.2 L 501.3,131.6 L 503.3,131.9 L 505.4,132.2 L 507.4,132.6 L 509.4,133.0 L 511.4,133.3 L 513.4,133.7 L 515.4,134.1 L 517.4,134.5 L 519.4,134.9 L 521.4,135.3 L 523.4,135.7 L 525.4,136.1 L 527.4,136.5 L 529.4,137.0 L 531.4,137.4 L 533.4,137.8 L 535.5,138.3 L 537.5,138.7 L 539.5,139.2 L 541.5,139.7 L 543.5,140.2 L 545.5,140.6 L 547.5,141.1 L 549.5,141.6 L 551.5,142.1 L 553.5,142.6 L 555.5,143.2 L 557.5,143.7 L 559.5,144.2 L 561.5,144.7 L 563.5,145.3 L 565.6,145.8 L 567.6,146.4 L 569.6,147.0 L 571.6,147.5 L 573.6,148.1 L 575.6,148.7 L 577.6,149.3 L 579.6,149.9 L 581.6,150.5 L 583.6,151.1 L 585.6,151.7 L 587.6,152.3 L 589.6,153.0 L 591.6,153.6 L 593.6,154.2 L 595.7,154.9 L 597.7,155.6 L 599.7,156.2 L 601.7,156.9 L 603.7,157.6 L 605.7,158.3 L 607.7,158.9 L 609.7,159.6 L 611.7,160.3 L 613.7,161.1 L 615.7,161.8 L 617.7,162.5 L 619.7,163.2 L 621.7,164.0 L 623.7,164.7 L 625.8,165.5 L 627.8,166.2 L 629.8,167.0 L 631.8,167.8 L 633.8,168.5 L 635.8,169.3 L 637.8,170.1 L 639.8,170.9 L 641.8,171.7 L 643.8,172.5 L 645.8,173.4 L 647.8,174.2 L 649.8,175.0 L 651.8,175.9 L 653.8,176.7 L 655.9,177.6 L 657.9,178.4 L 659.9,179.3 L 661.9,180.1 L 663.9,181.0 L 665.9,181.9 L 667.9,182.8 L 669.9,183.7 L 671.9,184.6 L 673.9,185.5 L 675.9,186.4 L 677.9,187.4 L 679.9,188.3 L 681.9,189.2 L 683.9,190.2 L 686.0,191.1 L 688.0,192.1 L 690.0,193.1 L 692.0,194.0 L 694.0,195.0 L 696.0,196.0 L 698.0,197.0 L 700.0,198.0" fill="none" stroke="#5a7a3a" stroke-width="2.5" opacity="0.6"/>
  <path d="M 100.0,195.0 L 102.0,194.1 L 104.0,193.1 L 106.0,192.2 L 108.0,191.3 L 110.0,190.4 L 112.0,189.5 L 114.0,188.6 L 116.1,187.7 L 118.1,186.8 L 120.1,185.9 L 122.1,185.1 L 124.1,184.2 L 126.1,183.4 L 128.1,182.5 L 130.1,181.7 L 132.1,180.8 L 134.1,180.0 L 136.1,179.2 L 138.1,178.3 L 140.1,177.5 L 142.1,176.7 L 144.1,175.9 L 146.2,175.1 L 148.2,174.3 L 150.2,173.5 L 152.2,172.8 L 154.2,172.0 L 156.2,171.2 L 158.2,170.5 L 160.2,169.7 L 162.2,169.0 L 164.2,168.2 L 166.2,167.5 L 168.2,166.8 L 170.2,166.1 L 172.2,165.3 L 174.2,164.6 L 176.3,163.9 L 178.3,163.2 L 180.3,162.6 L 182.3,161.9 L 184.3,161.2 L 186.3,160.5 L 188.3,159.9 L 190.3,159.2 L 192.3,158.6 L 194.3,157.9 L 196.3,157.3 L 198.3,156.6 L 200.3,156.0 L 202.3,155.4 L 204.3,154.8 L 206.4,154.2 L 208.4,153.6 L 210.4,153.0 L 212.4,152.4 L 214.4,151.8 L 216.4,151.2 L 218.4,150.7 L 220.4,150.1 L 222.4,149.5 L 224.4,149.0 L 226.4,148.4 L 228.4,147.9 L 230.4,147.4 L 232.4,146.8 L 234.4,146.3 L 236.5,145.8 L 238.5,145.3 L 240.5,144.8 L 242.5,144.3 L 244.5,143.8 L 246.5,143.3 L 248.5,142.9 L 250.5,142.4 L 252.5,141.9 L 254.5,141.5 L 256.5,141.0 L 258.5,140.6 L 260.5,140.1 L 262.5,139.7 L 264.5,139.3 L 266.6,138.9 L 268.6,138.4 L 270.6,138.0 L 272.6,137.6 L 274.6,137.2 L 276.6,136.8 L 278.6,136.5 L 280.6,136.1 L 282.6,135.7 L 284.6,135.4 L 286.6,135.0 L 288.6,134.6 L 290.6,134.3 L 292.6,134.0 L 294.6,133.6 L 296.7,133.3 L 298.7,133.0 L 300.7,132.7 L 302.7,132.4 L 304.7,132.1 L 306.7,131.8 L 308.7,131.5 L 310.7,131.2 L 312.7,130.9 L 314.7,130.7 L 316.7,130.4 L 318.7,130.1 L 320.7,129.9 L 322.7,129.6 L 324.7,129.4 L 326.8,129.2 L 328.8,128.9 L 330.8,128.7 L 332.8,128.5 L 334.8,128.3 L 336.8,128.1 L 338.8,127.9 L 340.8,127.7 L 342.8,127.5 L 344.8,127.4 L 346.8,127.2 L 348.8,127.0 L 350.8,126.9 L 352.8,126.7 L 354.8,126.6 L 356.9,126.4 L 358.9,126.3 L 360.9,126.2 L 362.9,126.1 L 364.9,126.0 L 366.9,125.9 L 368.9,125.8 L 370.9,125.7 L 372.9,125.6 L 374.9,125.5 L 376.9,125.4 L 378.9,125.3 L 380.9,125.3 L 382.9,125.2 L 384.9,125.2 L 387.0,125.1 L 389.0,125.1 L 391.0,125.1 L 393.0,125.0 L 395.0,125.0 L 397.0,125.0 L 399.0,125.0 L 401.0,125.0 L 403.0,125.0 L 405.0,125.0 L 407.0,125.0 L 409.0,125.1 L 411.0,125.1 L 413.0,125.1 L 415.1,125.2 L 417.1,125.2 L 419.1,125.3 L 421.1,125.3 L 423.1,125.4 L 425.1,125.5 L 427.1,125.6 L 429.1,125.7 L 431.1,125.8 L 433.1,125.9 L 435.1,126.0 L 437.1,126.1 L 439.1,126.2 L 441.1,126.3 L 443.1,126.4 L 445.2,126.6 L 447.2,126.7 L 449.2,126.9 L 451.2,127.0 L 453.2,127.2 L 455.2,127.4 L 457.2,127.5 L 459.2,127.7 L 461.2,127.9 L 463.2,128.1 L 465.2,128.3 L 467.2,128.5 L 469.2,128.7 L 471.2,128.9 L 473.2,129.2 L 475.3,129.4 L 477.3,129.6 L 479.3,129.9 L 481.3,130.1 L 483.3,130.4 L 485.3,130.7 L 487.3,130.9 L 489.3,131.2 L 491.3,131.5 L 493.3,131.8 L 495.3,132.1 L 497.3,132.4 L 499.3,132.7 L 501.3,133.0 L 503.3,133.3 L 505.4,133.6 L 507.4,134.0 L 509.4,134.3 L 511.4,134.6 L 513.4,135.0 L 515.4,135.4 L 517.4,135.7 L 519.4,136.1 L 521.4,136.5 L 523.4,136.8 L 525.4,137.2 L 527.4,137.6 L 529.4,138.0 L 531.4,138.4 L 533.4,138.9 L 535.5,139.3 L 537.5,139.7 L 539.5,140.1 L 541.5,140.6 L 543.5,141.0 L 545.5,141.5 L 547.5,141.9 L 549.5,142.4 L 551.5,142.9 L 553.5,143.3 L 555.5,143.8 L 557.5,144.3 L 559.5,144.8 L 561.5,145.3 L 563.5,145.8 L 565.6,146.3 L 567.6,146.8 L 569.6,147.4 L 571.6,147.9 L 573.6,148.4 L 575.6,149.0 L 577.6,149.5 L 579.6,150.1 L 581.6,150.7 L 583.6,151.2 L 585.6,151.8 L 587.6,152.4 L 589.6,153.0 L 591.6,153.6 L 593.6,154.2 L 595.7,154.8 L 597.7,155.4 L 599.7,156.0 L 601.7,156.6 L 603.7,157.3 L 605.7,157.9 L 607.7,158.6 L 609.7,159.2 L 611.7,159.9 L 613.7,160.5 L 615.7,161.2 L 617.7,161.9 L 619.7,162.6 L 621.7,163.2 L 623.7,163.9 L 625.8,164.6 L 627.8,165.3 L 629.8,166.1 L 631.8,166.8 L 633.8,167.5 L 635.8,168.2 L 637.8,169.0 L 639.8,169.7 L 641.8,170.5 L 643.8,171.2 L 645.8,172.0 L 647.8,172.8 L 649.8,173.5 L 651.8,174.3 L 653.8,175.1 L 655.9,175.9 L 657.9,176.7 L 659.9,177.5 L 661.9,178.3 L 663.9,179.2 L 665.9,180.0 L 667.9,180.8 L 669.9,181.7 L 671.9,182.5 L 673.9,183.4 L 675.9,184.2 L 677.9,185.1 L 679.9,185.9 L 681.9,186.8 L 683.9,187.7 L 686.0,188.6 L 688.0,189.5 L 690.0,190.4 L 692.0,191.3 L 694.0,192.2 L 696.0,193.1 L 698.0,194.1 L 700.0,195.0" fill="none" stroke="#5a7a3a" stroke-width="1.5" opacity="0.3"/>
  <text x="720" y="143" font-size="7" fill="#5a7a3a" font-family="Helvetica,Arial,sans-serif">arco de bambú</text>
  <text x="720" y="153" font-size="7" fill="#5a7a3a" font-family="Helvetica,Arial,sans-serif">(compresión)</text>

  <!-- BAMBOO TIE BUNDLE (tracción, at bottom) -->
  <!-- 26 strips × 30×35mm in a single layer = 35mm deep bundle -->
  <rect x="105" y="218" width="590" height="35" fill="#5a7a3a" opacity="0.35" stroke="#3a5a2a" stroke-width="0.8"/>
  <!-- Individual strip lines -->
  <g stroke="#3a5a2a" stroke-width="0.3" opacity="0.3">
    <line x1="105" y1="225" x2="695" y2="225"/>
    <line x1="105" y1="232" x2="695" y2="232"/>
    <line x1="105" y1="239" x2="695" y2="239"/>
    <line x1="105" y1="246" x2="695" y2="246"/>
  </g>
  <text x="720" y="230" font-size="7" fill="#5a7a3a" font-family="Helvetica,Arial,sans-serif">tirante de bambú</text>
  <text x="720" y="240" font-size="7" fill="#5a7a3a" font-family="Helvetica,Arial,sans-serif">26× 30×35mm</text>
  <text x="720" y="250" font-size="7" fill="#5a7a3a" font-family="Helvetica,Arial,sans-serif">(tracción)</text>

  <!-- LIME PLASTER (ceiling) -->
  <rect x="100" y="258" width="600" height="5" fill="#f5f0e0" stroke="#ddd" stroke-width="0.5"/>
  <text x="720" y="263" font-size="7" fill="#aaa" font-family="Helvetica,Arial,sans-serif">pañete de cal techo</text>

  <!-- HDPE BLOCKS at supports -->
  <rect x="100" y="198" width="20" height="55" fill="#4a90a8" opacity="0.3" stroke="#2a7088" stroke-width="0.5"/>
  <rect x="680" y="198" width="20" height="55" fill="#4a90a8" opacity="0.3" stroke="#2a7088" stroke-width="0.5"/>

  <!-- RECESSED LIGHT -->
  <rect x="395" y="248" width="16" height="10" fill="white" stroke="#d4a017" stroke-width="1" rx="2"/>
  <circle cx="403" cy="254" r="3" fill="#d4a017" opacity="0.5"/>

  <!-- PVC CONDUIT in core -->
  <circle cx="250" cy="223" r="5" fill="#ccc" opacity="0.5" stroke="#888" stroke-width="0.5"/>
  <circle cx="250" cy="223" r="2" fill="#2980b9"/>
  <circle cx="450" cy="218" r="5" fill="#ccc" opacity="0.5" stroke="#888" stroke-width="0.5"/>
  <circle cx="450" cy="218" r="2" fill="#d4a017"/>

  <!-- WALL PANELS (supports) -->
  <rect x="60" y="78" width="40" height="180" fill="#d4c4a8" opacity="0.3" stroke="#888" stroke-width="1"/>
  <rect x="700" y="78" width="40" height="180" fill="#d4c4a8" opacity="0.3" stroke="#888" stroke-width="1"/>

  <!-- OVERLENGTH BOLTS -->
  <line x1="80" y1="55" x2="80" y2="268" stroke="#333" stroke-width="1.5"/>
  <circle cx="80" cy="55" r="3" fill="none" stroke="#333" stroke-width="1"/>
  <circle cx="80" cy="268" r="3" fill="none" stroke="#333" stroke-width="1"/>
  <line x1="710" y1="55" x2="710" y2="268" stroke="#333" stroke-width="1.5"/>
  <circle cx="710" cy="55" r="3" fill="none" stroke="#333" stroke-width="1"/>
  <circle cx="710" cy="268" r="3" fill="none" stroke="#333" stroke-width="1"/>

  <!-- DIMENSIONS -->
  <line x1="100" y1="288" x2="700" y2="288" stroke="#333" stroke-width="0.5"/>
  <line x1="100" y1="283" x2="100" y2="293" stroke="#333" stroke-width="0.5"/>
  <line x1="700" y1="283" x2="700" y2="293" stroke="#333" stroke-width="0.5"/>
  <text x="400" y="303" text-anchor="middle" font-size="8" fill="#333" font-family="Helvetica,Arial,sans-serif">5,0 m de luz</text>

  <line x1="35" y1="60" x2="35" y2="263" stroke="#333" stroke-width="0.5"/>
  <line x1="30" y1="60" x2="40" y2="60" stroke="#333" stroke-width="0.5"/>
  <line x1="30" y1="263" x2="40" y2="263" stroke="#333" stroke-width="0.5"/>
  <text x="25" y="159.0" text-anchor="end" font-size="7" fill="#333" font-family="Helvetica,Arial,sans-serif" transform="rotate(-90,25,159.0)">~200mm total</text>

  <!-- FORCE ARROWS (arch compresión + tie tracción) -->
  <!-- Arch: inward arrows at supports -->
  <text x="130" y="160" font-size="8" fill="#5a7a3a" font-family="Helvetica,Arial,sans-serif">→ compresión →</text>
  <!-- Tie: outward arrows at mid-span -->
  <text x="330" y="268" font-size="8" fill="#5a7a3a" font-family="Helvetica,Arial,sans-serif">← tracción →</text>

  <!-- ZERO STEEL label -->
  <rect x="280" y="313" width="240" height="20" fill="#e8f0e6" stroke="#2d5a27" stroke-width="0.5" rx="3"/>
  <text x="400" y="326" text-anchor="middle" font-size="8" fill="#2d5a27" font-weight="bold" font-family="Helvetica,Arial,sans-serif">CERO ACERO EN LA LUZ — todo bambú + mortero</text>

  <!-- LEGEND -->
  <g transform="translate(50,343)" font-family="Helvetica,Arial,sans-serif" font-size="7" fill="#555">
    <rect x="0" y="0" width="700" height="42" fill="white" stroke="#ddd" stroke-width="0.5" rx="4"/>
    <rect x="15" y="8" width="10" height="4" fill="#c0392b" opacity="0.6"/><text x="30" y="13">Perfil T (solo borde)</text>
    <rect x="130" y="8" width="10" height="4" fill="#e8d8b0" opacity="0.5"/><text x="145" y="13">Mortero + fibra</text>
    <rect x="230" y="8" width="10" height="4" fill="#d4c4a8" opacity="0.4"/><text x="245" y="13">Mortero (std)</text>
    <line x1="315" y1="10" x2="335" y2="10" stroke="#5a7a3a" stroke-width="2.5" opacity="0.5"/><text x="342" y="13">Bamboo arch</text>
    <rect x="410" y="8" width="10" height="4" fill="#5a7a3a" opacity="0.35"/><text x="425" y="13">Bamboo tie (26×30×35)</text>
    <rect x="545" y="8" width="10" height="4" fill="#c47a2a" opacity="0.4"/><text x="560" y="13">Cross-pieces</text>
    <rect x="635" y="8" width="10" height="4" fill="#c67a3c" opacity="0.5"/><text x="650" y="13">Baldosas</text>
    <rect x="15" y="24" width="10" height="4" fill="#d4a050" opacity="0.4"/><text x="30" y="29">Corcho</text>
    <rect x="70" y="24" width="10" height="4" fill="#f5f0e0"/><text x="85" y="29">Pañete de cal</text>
    <rect x="155" y="24" width="10" height="4" fill="#4a90a8" opacity="0.3"/><text x="170" y="29">HDPE</text>
    <line x1="220" y1="26" x2="230" y2="26" stroke="#333" stroke-width="1.5"/><circle cx="220" cy="26" r="2.5" fill="none" stroke="#333" stroke-width="1"/><text x="237" y="29">Perno</text>
    <circle cx="285" cy="26" r="4" fill="#ccc" stroke="#888" stroke-width="0.3"/><text x="295" y="29">Conducto</text>
    <rect x="340" y="24" width="8" height="6" fill="white" stroke="#d4a017" stroke-width="0.5"/><text x="355" y="29">Luz</text>
  </g>
</svg>